<?xml version="1.0" standalone="no"?>
<!DOCTYPE svg PUBLIC "-//W3C//DTD SVG 1.1//EN" "http://www.w3.org/Graphics/SVG/1.1/DTD/svg11.dtd" >
<svg xmlns="http://www.w3.org/2000/svg">
<metadata></metadata>
<defs>
<font id="mariette_tryoutregular" horiz-adv-x="2048" >
<font-face units-per-em="2048" ascent="1638" descent="-410" />
<missing-glyph horiz-adv-x="512" />
<glyph />
<glyph />
<glyph unicode="&#xd;" />
<glyph unicode=" "  horiz-adv-x="512" />
<glyph unicode="&#x09;" horiz-adv-x="512" />
<glyph unicode="&#xa0;" horiz-adv-x="512" />
<glyph unicode="!" horiz-adv-x="505" />
<glyph unicode="&#x22;" horiz-adv-x="778" />
<glyph unicode="#" horiz-adv-x="5062" d="M51 293q0 47 21 82q25 43 67 43q97 0 97 -121q0 -49 -21 -84q-25 -43 -68 -43q-47 0 -73 41q-23 35 -23 82zM84 293q0 -88 70 -88q23 0 36 35q11 28 11 53q0 92 -58 92q-59 0 -59 -92zM109 1378q0 66 26 113q33 57 94 57q14 0 43 -2q23 -2 50.5 -34.5t25.5 -57.5 q-10 -4 -33 -10q-2 29 -25.5 50.5t-51.5 21.5q-43 0 -72 -43q-25 -35 -25 -80q0 -143 101 -144q45 0 75 35v59q-8 2 -77 0v39h114v-120q-55 -49 -112 -50q-66 0 -103 54q-31 45 -30 112zM170 803q0 92 48 158.5t136 66.5q66 0 109 -51t43 -119q0 -51 -29 -102 q-33 -59 -82 -60q-29 0 -37 37q-29 -37 -57 -37q-29 0 -47 37q-14 31 -14 64q0 49 27.5 95t72.5 46q27 0 47 -39q2 12 6 35h33q-10 -63 -31 -189l8 -10h5q29 0 49 45t20 76q0 61 -37 99t-98 38q-66 0 -106 -61q-37 -53 -37 -121q0 -174 155 -174q80 0 127 63h33 q-43 -96 -156 -96q-188 0 -188 199zM272 176v236h29v-11q0 -12 2 -22q10 39 45 39q17 -1 31 -15q-4 -12 -14 -36q-12 10 -23 10q-37 0 -37 -55v-146h-33zM272 793q0 -61 35 -62q31 0 51 39q17 33 17 68q0 68 -49 67q-53 -23 -54 -112zM389 1333q0 47 21 84q27 45 69 45 q41 0 66.5 -34.5t25.5 -77.5q0 -12 -2 -23h-143q-2 -6 -2 -10q0 -23 18.5 -47.5t40.5 -24.5q39 0 54 47q10 -2 32 -4q-2 -29 -28.5 -51.5t-55.5 -22.5q-96 0 -96 119zM426 1358l113 2q0 25 -16.5 46t-39.5 21q-25 0 -41 -22.5t-16 -46.5zM500 176v324h35v-115q27 33 59 33 q27 0 45 -20.5t18 -47.5v-174h-32v168q0 41 -41 41q-49 0 -49 -57v-152h-35zM594 1425v29h20q2 18 4 57q10 8 31 25v-78q10 -4 35 -4v-29h-33v-157q0 -10 11.5 -13.5t21.5 -5.5q0 -9 4 -32q-8 -2 -18 -3q-53 0 -54 41v166q-8 4 -22 4zM655 696v326h35v-115q25 31 60 31 q63 0 63 -68v-174h-33v170q0 39 -41 39q-49 0 -49 -55v-154h-35zM692 381v31h21q2 16 4 57q10 8 31 25v-80q10 -2 34 -2v-31h-34v-158q0 -8 12 -11t22 -5q0 -13 4 -33q-8 -4 -20 -4q-51 0 -51 43v166q-8 4 -23 2zM795 381v31h20q2 16 4 57q10 8 33 25v-80q8 -2 33 -2v-31 h-33v-158q0 -8 11 -11t22 -5q2 -13 4 -33q-8 -4 -19 -4q-51 0 -51 43v166q-10 4 -24 2zM799 1425v29h22q2 18 2 57q10 8 33 25v-78q10 -4 33 -4v-29h-33v-157q0 -10 11.5 -13.5t21.5 -5.5q2 -9 6 -32q-10 -2 -21 -3q-51 0 -51 41v166q-10 4 -24 4zM848 903v31h20q2 16 4 57 q10 8 31 25v-80q10 -2 35 -2v-31h-35v-158q0 -10 12.5 -13t22.5 -5q0 -10 4 -33q-8 -2 -20 -2q-51 0 -52 43v166q-8 2 -22 2zM913 84v328h31v-11q2 -6 2 -18q20 35 55 35q80 0 80 -119q0 -129 -84 -129q-29 0 -47 27q-4 -4 -2 -113h-35zM920 1219v325h32v-114q20 31 58 30 q27 0 47 -20.5t20 -46.5v-174h-35v167q0 41 -41 41q-49 0 -49 -57v-151h-32zM944 295q0 -90 55 -90q23 0 37 35q13 28 13 55q0 90 -54 90q-51 0 -51 -90zM950 903v31h21q2 16 4 57q10 8 33 25v-80q8 -2 32 -2v-31h-32v-158q0 -10 11 -13t21 -5q0 -10 4 -33q-8 -2 -20 -2 q-51 0 -51 43v166q-8 2 -23 2zM1069 606v328h31v-10q2 -6 2 -21q20 35 55 35q80 0 80 -119q0 -127 -84 -127q-29 0 -47 27q-4 -6 -2 -113h-35zM1100 817q0 -92 55 -92q23 0 37 37q12 28 12 53q0 90 -53 90q-51 0 -51 -88zM1114 1333q0 47 21 84q25 45 69 45q41 0 66.5 -34.5 t25.5 -77.5q0 -12 -2 -23h-143q-2 -6 -2 -10q0 -23 18.5 -47.5t40.5 -24.5q39 0 54 47q10 -2 32 -4q-2 -29 -28.5 -51.5t-55.5 -22.5q-96 0 -96 119zM1133 176v45h34v-45h-34zM1133 367v45h34v-45h-34zM1151 1358l113 2q0 25 -16.5 46t-39.5 21q-25 0 -41 -22.5t-16 -46.5z M1200 172l78 334h25l-76 -334h-27zM1278 -229q0 106 65 213h21q-53 -109 -53 -213q0 -107 55 -211h-23q-66 104 -65 211zM1288 696v45h35v-45h-35zM1288 889v45h35v-45h-35zM1305 172l75 334h27l-78 -334h-24zM1356 692l78 334h24l-76 -334h-26zM1395 -260q10 0 32 4 q16 -61 52 -61q57 0 57 67q0 63 -55 64q-10 0 -21 -4q0 12 4 38l11 -2q49 0 49 58q0 45 -45 45q-41 0 -47 -55q-10 2 -33 4q2 31 24.5 57.5t53.5 26.5q80 0 79 -84q0 -45 -34 -66q49 -25 49 -82q0 -39 -25.5 -69.5t-64.5 -30.5q-37 0 -61.5 25.5t-24.5 64.5zM1409 412h35 q16 -80 41 -187l39 187h35l40 -181q20 88 39 181h35l-55 -236h-37l-39 180l-41 -180h-35zM1419 1425v29h27q2 33 8 63.5t49 30.5q19 0 27 -4q0 -10 -4 -31q-10 2 -19 3q-29 0 -26 -43v-15q10 -4 35 -4v-29h-35v-206h-33v202q-14 4 -29 4zM1460 692l76 334h27l-78 -334h-25z M1540 1286v168h33v-162q0 -14 14.5 -30.5t28.5 -16.5q20 0 34.5 19.5t14.5 42.5v147h31v-235h-29q0 25 -2 32q-25 -37 -61 -37q-63 0 -64 72zM1565 934h34q16 -82 41 -186l39 186h35l41 -182q20 90 39 182h35l-55 -238h-37l-39 183l-41 -183h-35zM1630 -100q55 37 76 82h20 v-328h-34v254q-33 -29 -62 -45v37zM1677 412h35q16 -80 41 -187l39 187h35l41 -181q20 88 39 181h35l-56 -236h-37l-39 180l-41 -180h-34zM1749 1219v325h33v-325h-33zM1810 -184q0 166 82 166q95 0 95 -170q0 -86 -31 -134q-8 -12 -45 -28h-10q-90 -4 -91 166zM1833 934h35 q16 -82 39 -186l41 186h34l41 -182q20 90 39 182h35l-55 -238h-37l-41 183l-39 -183h-35zM1833 1219v325h33v-325h-33zM1845 -145v-86q0 -23 16.5 -55.5t36.5 -32.5q54 0 54 102v65q0 100 -51 101q-55 0 -56 -94zM1946 412h34q14 -80 39 -187l41 187h35l39 -181 q23 88 41 181h35l-56 -236h-36l-41 180l-39 -180h-35zM2007 1335q0 125 86 125q74 0 82 -71q-12 -2 -33 -9q-6 47 -47 47q-25 0 -40 -29.5t-15 -56.5q0 -94 57 -94q41 0 47 58q10 -3 33 -7q0 -27 -25.5 -56.5t-52.5 -29.5q-43 0 -69 41q-23 35 -23 82zM2015 -16h23 q63 -104 63 -213q0 -106 -63 -211h-23q53 109 53 215t-53 209zM2101 934h35q14 -82 39 -186l41 186h35l39 -182q23 90 41 182h34l-55 -238h-37l-41 183l-39 -183h-34zM2144 -260q10 0 33 4q14 -61 51 -61q57 0 58 67q0 63 -56 64q-12 0 -22 -4q2 12 6 38l10 -2q49 0 49 58 q0 45 -47 45q-41 0 -45 -55q-10 2 -33 4q0 31 23.5 57.5t52.5 26.5q82 0 82 -84q0 -45 -37 -66q49 -25 49 -82q0 -39 -25.5 -69.5t-62.5 -30.5t-61.5 25.5t-24.5 64.5zM2206 1219v325h32v-114q27 31 62 30q63 0 63 -67v-174h-32v167q0 41 -41 41q-49 0 -49 -57v-151h-35z M2222 176v45h35v-45h-35zM2316 176v236h31l-2 -13q0 -10 2 -18q23 37 57 37q35 0 56 -39q18 37 59 37q59 0 59 -60v-180h-32v172q0 37 -35 37q-47 0 -47 -53v-156h-33v172q0 37 -41 37t-41 -61v-148h-33zM2351 -254q0 74 51 86q-39 25 -39 70q0 33 23.5 56.5t54.5 23.5 t53.5 -26t22.5 -56q0 -41 -39 -68q51 -20 51 -86q0 -39 -25.5 -68.5t-64.5 -29.5t-63.5 29.5t-24.5 68.5zM2378 696v45h35v-45h-35zM2384 -248q0 -70 59 -69q23 0 37 23t14 46q0 63 -51 64q-59 0 -59 -64zM2396 -98q0 -53 43 -54q43 1 43 52q0 49 -41 49q-45 0 -45 -47z M2406 1280q0 55 52 70q80 20 86 24v12q0 41 -47 41t-54 -45q-10 0 -33 4q14 74 91 74q80 0 79 -117q0 -10 -2 -32v-33q1 -39 7 -59h-31l-12 30q-33 -37 -74 -37q-61 0 -62 68zM2439 1286q0 -14 12 -31q12 -8 29 -8q64 0 62 70v20q-2 -2 -60 -18q-43 -10 -43 -33zM2451 903 v31h27q4 31 6 63q10 29 51 29q21 0 29 -4q-2 -10 -6 -31q-8 2 -16 2q-29 0 -29 -43v-14q10 -2 37 -2v-31h-35v-207h-35v205q-12 2 -29 2zM2558 -254q0 74 51 86q-39 25 -39 70q0 33 23.5 56.5t56.5 23.5q31 0 53.5 -26t22.5 -56q0 -41 -39 -68q51 -20 51 -86 q0 -39 -25.5 -68.5t-64.5 -29.5t-64.5 29.5t-25.5 68.5zM2560 815q0 47 22.5 85t65.5 38q96 0 96 -121q0 -47 -20 -82q-25 -43 -68 -43q-47 0 -71.5 37t-24.5 86zM2593 -248q0 -70 59 -69q20 0 34.5 23t14.5 46q0 63 -51 64q-57 0 -57 -64zM2595 813q0 -88 69 -88 q20 0 35 37q11 28 11 53q0 92 -58 92q-57 0 -57 -94zM2605 -98q0 -53 43 -54q43 1 43 52q0 49 -43 49t-43 -47zM2619 238q0 55 52 67q80 23 86 25v14q0 41 -47 41t-54 -45q-10 0 -33 4q12 74 91 74q80 0 79 -117q0 -10 -2 -33v-32q1 -40 7 -60h-33q-2 10 -10 31 q-33 -37 -74 -37q-61 0 -62 68zM2621 1219v235h29v-10q0 -12 2 -23q10 39 45 39q17 0 29 -12q-2 -14 -12 -39q-12 10 -23 10q-37 0 -37 -55v-145h-33zM2652 244q0 -14 12 -33q12 -6 29 -6q64 -1 62 69v21q-4 -2 -60 -19q-43 -10 -43 -32zM2738 1280q0 55 51 70q82 20 85 25 t3 11q0 41 -47 41t-55 -45q-10 0 -31 4q12 74 88 74q80 0 80 -117v-32.5v-32.5q0 -39 6 -59h-32q-4 10 -13 30q-33 -37 -73 -37q-61 0 -62 68zM2763 -207h100v-41h-100v41zM2773 1286q0 -14 12 -31q12 -8 27 -8q65 0 63 70v20q-4 -2 -61 -18q-41 -10 -41 -33zM2783 696v238 h29v-12q0 -10 2 -19q20 35 61 35q61 0 62 -70v-172h-33v166q0 14 -13.5 29.5t-27.5 15.5q-47 0 -47 -57v-154h-33zM2818 381v31h23q2 16 2 57q10 8 32 25v-80q8 -2 33 -2v-31h-33v-158q0 -8 11.5 -11t21.5 -5q2 -13 6 -33q-10 -4 -20 -4q-51 0 -51 43v166q-10 4 -25 2z M2892 -262q12 2 33 4q14 -61 55 -61q27 0 43 32q12 27 12 56q0 25 -16.5 46t-40.5 21q-31 0 -49 -33q-14 4 -31 4l24 166h134v-34h-103q-10 -41 -14 -84q23 16 49 16q37 0 59.5 -36t22.5 -73q0 -45 -26.5 -78.5t-69.5 -33.5q-33 0 -57.5 27.5t-24.5 60.5zM2925 291 q0 127 88 127q72 0 79 -74q-10 -2 -32 -6q-4 47 -45 47q-25 0 -40.5 -29.5t-15.5 -56.5q0 -96 56 -96q43 0 47 59q13 -2 33 -6q0 -29 -25 -58.5t-53 -29.5q-43 0 -70 43q-23 35 -22 80zM2943 1335q0 125 86 125q72 0 80 -71q-10 -2 -33 -9q-4 47 -45 47q-25 0 -40 -29.5 t-15 -56.5q0 -94 55 -94q43 0 47 58q13 -3 33 -7q0 -27 -24.5 -56.5t-53.5 -29.5q-43 0 -67 41q-23 35 -23 82zM2974 903v31h22q2 16 2 57q10 8 33 25v-80q8 -2 33 -2v-31h-33v-158q0 -10 11.5 -13t21.5 -5q2 -10 4 -33q-8 -2 -19 -2q-51 0 -51 43v166q-10 2 -24 2z M3092 696v238h31v-12q0 -10 2 -19q20 37 58 37q35 0 53 -39q20 37 61 37q59 0 60 -59v-183h-35v174q0 35 -33 35q-47 0 -47 -51v-158h-35v174q0 35 -39 35q-43 0 -43 -61v-148h-33zM3099 -346q2 47 73.5 125t71.5 112q0 20 -17.5 40t-37.5 20q-23 0 -40.5 -23.5t-13.5 -48.5 q-10 2 -32 4v6q-2 37 24.5 65t63.5 28t61.5 -28t24.5 -65q0 -39 -53 -104q-41 -47 -80 -94q8 -2 131 0v-37h-176zM3125 176v324h33v-115q27 33 61 33q61 0 62 -68v-174h-33v168q0 41 -41 41q-49 0 -49 -57v-152h-33zM3125 1425v29h21q2 18 2 57q12 8 33 25v-78q10 -4 34 -4 v-29h-34v-157q0 -10 12 -13.5t22 -5.5q0 -9 4 -32q-10 -2 -20 -3q-51 0 -51 41v166q-8 4 -23 4zM3232 1333q0 47 20 84q25 45 68 45t68.5 -34.5t25.5 -77.5q0 -12 -4 -23h-143v-10q0 -23 17 -47.5t40 -24.5q41 0 53 47q12 -2 33 -4q0 -29 -27.5 -51.5t-54.5 -22.5 q-96 0 -96 119zM3269 1358l110 2q0 25 -15.5 46t-39.5 21q-25 0 -41 -22.5t-14 -46.5zM3314 381v31h26q2 33 8.5 63.5t49.5 30.5q18 0 26 -6q0 -10 -4 -31q-10 4 -16 4q-31 0 -29 -43v-16q10 -2 35 -2v-31h-35v-205h-33v203q-14 4 -28 2zM3334 -100q57 37 78 82h20v-328h-34 v254q-33 -29 -64 -45v37zM3391 811q0 47 21 84q25 45 68 45t68.5 -34t25.5 -77q0 -14 -2 -24h-146v-10q0 -23 18.5 -46.5t39.5 -23.5q41 0 55 45q10 0 33 -4q-2 -29 -29 -51.5t-55 -22.5q-96 0 -97 119zM3422 293q0 47 21 82q23 43 65 43q96 0 96 -121q0 -49 -18 -84 q-25 -43 -70 -43t-71 41q-23 35 -23 82zM3428 836l111 2q0 25 -15.5 46t-39.5 21q-23 0 -39.5 -22.5t-16.5 -46.5zM3453 1219v235h27v-10q0 -12 2 -23q12 39 45 39q16 0 30 -12q-4 -14 -14 -39q-10 10 -22 10q-35 0 -35 -55v-145h-33zM3455 293q0 -88 70 -88q20 0 34 35 q13 28 13 53q0 92 -60 92q-57 0 -57 -92zM3516 -201q0 182 93 183q57 0 77 -78q-16 -6 -32 -6q-16 49 -47 49q-59 0 -60 -103q0 -10 2 -18q27 39 64 39q35 0 56 -34t21 -71q0 -113 -86 -112q-88 0 -88 151zM3551 -238q0 -80 64 -79q18 0 30 32q13 25 13 45q0 72 -54 72 q-53 0 -53 -70zM3613 696v238h30v-12q-2 -10 0 -19q23 35 62 35q61 0 61 -70v-172h-32v166q0 14 -13.5 29.5t-27.5 15.5q-47 0 -48 -57v-154h-32zM3643 176v236h31v-13q0 -10 2 -18q20 35 60 35q63 0 63 -70v-170h-35v166q0 14 -13 29.5t-28 15.5q-47 0 -47 -59v-152h-33z M3664 1286q2 0 33 6q6 -45 49 -45q45 0 45 37q0 23 -61.5 42.5t-61.5 68.5q0 66 76 65q72 0 76 -65q-10 -2 -31 -6q-4 39 -47 38q-39 0 -39 -36q6 -16 67 -35q56 -15 56 -66q0 -78 -82 -78q-70 0 -80 74zM3820 766v168h34v-164q0 -45 43 -45q18 0 32.5 19.5t14.5 39.5v150 h31v-238h-29q0 27 -2 35q-25 -39 -61 -39q-63 0 -63 74zM3834 381v31h22q2 16 2 57q10 8 33 25v-80q10 -2 33 -2v-31h-33v-158q0 -8 11.5 -11t23.5 -5q0 -13 4 -33q-10 -4 -20 -4q-51 0 -52 43v166q-8 4 -24 2zM3854 1333q0 47 21 84q25 45 67 45q41 0 67 -34.5t26 -77.5 q0 -12 -2 -23h-144q-2 -6 -2 -10q0 -23 18.5 -47.5t40.5 -24.5q39 0 54 47q10 -2 33 -4q0 -29 -28 -51.5t-56 -22.5q-94 0 -95 119zM3889 1358l113 2q0 25 -16.5 46t-39.5 21q-25 0 -41 -22.5t-16 -46.5zM3940 244l31 6q6 -47 49 -47q47 0 47 39q0 23 -61.5 41t-61.5 69 q0 66 74 66q72 0 76 -66q-10 -2 -31 -6q-4 39 -45 39t-39 -39q6 -14 68 -33q53 -16 53 -65q0 -78 -80 -78q-72 0 -80 74zM4039 696v45h34v-45h-34zM4057 1425v29h23q2 18 2 57q10 8 32 25v-78q8 -4 33 -4v-29h-33v-157q0 -10 11.5 -13.5t21.5 -5.5q2 -9 6 -32q-10 -2 -20 -3 q-51 0 -51 41v166q-10 4 -25 4zM4119 813q0 125 88 125q72 0 79 -72q-10 -2 -32 -6q-6 47 -47 47q-23 0 -38.5 -29.5t-15.5 -56.5q0 -96 56 -96q43 0 47 57q10 0 33 -4q0 -29 -25 -58.5t-53 -29.5q-43 0 -67.5 39t-24.5 84zM4151 176v45h35v-45h-35zM4231 291q0 127 88 127 q72 0 80 -74q-12 -2 -33 -6q-6 47 -47 47q-23 0 -38 -29.5t-15 -56.5q0 -96 55 -96q43 0 47 59q10 -2 33 -6q0 -29 -24.5 -58.5t-53.5 -29.5q-43 0 -69 43q-23 35 -23 80zM4260 1425v29h26q4 33 7 64q10 31 51 30q20 0 28 -4q-2 -10 -6 -31q-8 2 -16 3q-29 0 -29 -43v-15 q10 -4 37 -4v-29h-35v-206h-34v202q-12 4 -29 4zM4305 815q0 47 21.5 85t64.5 38q96 0 96 -121q0 -47 -18 -82q-25 -43 -70 -43t-69.5 37t-24.5 86zM4338 813q0 -88 69 -88q20 0 35 37q12 28 12 53q0 92 -59 92q-57 0 -57 -94zM4368 1335q0 47 21 82q25 43 67 43 q97 0 97 -121q0 -49 -21 -84q-25 -41 -67 -41q-47 0 -72 37t-25 84zM4403 1335q0 -88 70 -88q20 0 35 37q10 28 10 53q0 90 -57 90t-58 -92zM4418 293q0 47 18 82q25 43 68 43q96 0 96 -121q0 -49 -21 -84q-23 -43 -67 -43q-45 0 -72 41q-23 35 -22 82zM4450 293 q0 -88 70 -88q20 0 35 35q12 28 12 53q0 92 -59 92q-57 0 -58 -92zM4526 696v238h31v-12q0 -10 2 -19q20 37 55 37t55 -39q18 37 60 37q59 0 59 -59v-183h-33v174q0 35 -32 35q-49 0 -49 -51v-158h-33v174q0 35 -39 35q-43 0 -43 -61v-148h-33zM4592 1219v235h28v-12 q0 -8 2 -19q20 35 62 35q61 0 61 -67v-172h-33v165q0 14 -13 30t-28 16q-47 0 -47 -60v-151h-32zM4639 176v236h30v-13q-2 -10 2 -18q20 37 56 37q35 0 55 -39q18 37 59 37q59 0 60 -60v-180h-33v172q0 37 -35 37q-47 0 -47 -53v-156h-33v172q0 37 -41 37t-41 -61v-148h-32z M4782 1425v29h21q4 18 4 57q10 8 32 25v-78q8 -4 33 -4v-29h-33v-157q0 -10 11.5 -13.5t21.5 -5.5q2 -9 4 -32q-8 -2 -18 -3q-51 0 -51 41v166q-10 4 -25 4z" />
<glyph unicode="$" horiz-adv-x="1441" />
<glyph unicode="%" horiz-adv-x="1689" />
<glyph unicode="&#x26;" horiz-adv-x="1351" />
<glyph unicode="'" horiz-adv-x="458" />
<glyph unicode="(" horiz-adv-x="702" />
<glyph unicode=")" horiz-adv-x="946" />
<glyph unicode="*" horiz-adv-x="1222" />
<glyph unicode="+" horiz-adv-x="1269" />
<glyph unicode="," horiz-adv-x="604" />
<glyph unicode="-" horiz-adv-x="1329" />
<glyph unicode="." horiz-adv-x="413" />
<glyph unicode="/" horiz-adv-x="1073" />
<glyph unicode="0" horiz-adv-x="1110" d="M74 438q0 43 23.5 121t23.5 115q0 14 -6 44t-6 44q0 31 27.5 103.5t113.5 113.5q74 33 147 65q27 2 52 3q211 0 380.5 -166t169.5 -377q0 -197 -215 -352q-201 -143 -403 -144q-197 0 -268 152q-12 29 -21 102q-6 53 -12 109q-6 43 -6 67zM193 379q0 -102 32 -182 q72 -72 172 -72q37 0 164 43q31 10 90 33q86 45 160 139q84 104 84 192q0 168 -134 287t-304 115l-35 -2q-18 -6 -49 -27q-10 -8 -41 -63q-139 -238 -139 -463z" />
<glyph unicode="1" horiz-adv-x="628" d="M125 1214q4 88 45 89q-6 0 35 -9q70 -139 104 -497q37 -51 56 -135q12 -72 24 -146q35 -178 74 -323q12 -52 12 -107v-33q-12 -18 -37 -53h-55q-4 6 -37 53q-43 293 -88 588q-59 360 -133 573z" />
<glyph unicode="2" horiz-adv-x="1603" d="M123 1110q88 90 230.5 150.5t269.5 60.5q111 0 226.5 -86t115.5 -193q0 -70 -136 -231q-225 -266 -254 -305q-137 -188 -137 -328q0 -20 4 -41q29 -10 70 -10q94 0 229 35q217 57 226 59q78 10 155 21q100 12 142 47q78 -16 157 -31q80 -21 82 -123h-37q-29 0 -87 3 t-89 3q-150 0 -334 -43q-113 -31 -227 -61q-135 -33 -231 -33q-86 0 -125 19q-53 25 -74 98q4 31 26.5 84t26.5 78q33 137 129 274q25 37 187 231q115 139 168 248q4 10 4 29q0 14 -4 29q-111 109 -258 108q-143 0 -385 -133q-47 0 -70 41z" />
<glyph unicode="3" horiz-adv-x="1316" d="M117 1051v12q33 18 102 47q88 29 270 29q143 0 250 -25q170 -41 170 -139q0 -80 -121 -193q-86 -80 -192 -145q10 -45 76 -57q53 -6 106 -13q59 -14 197 -61q78 -27 147 -109q74 -88 74 -166q0 -49 -39 -90q-141 -150 -434 -149q-8 0 -205 8l-49 -33q-70 2 -119 105 l15 53q29 4 65 4q45 0 134 -6t134 -6q244 0 369 131q2 35 -29 67q-72 74 -190 115q-72 27 -223.5 54.5t-218.5 52.5q-18 29 -19 69q0 14 4 25q129 100 379 309q12 78 -293 78q-184 0 -332 -51q-29 31 -28 84z" />
<glyph unicode="4" horiz-adv-x="1409" d="M131 702q0 98 21.5 295t21.5 293l29 29q43 0 82 -41q0 -106 -12.5 -320.5t-12.5 -320.5l21 -23q33 16 153 21q98 4 135 51v428q0 31 51.5 123t77.5 106q12 -12 29 -14q0 -45 -20 -125q-25 -88 -27 -127q-14 -199 -12 -325v-66l32 -31q20 -2 222 -2q20 0 60 -6t60 -6 q37 0 91 18q78 27 88 29q2 -4 30 -43q21 -27 21 -47q0 -86 -238 -86q-111 0 -319 6q-47 -68 -58 -170q-4 -33 -4 -182q0 -102 -12 -166q-47 -2 -80 39q-12 115 -12 240q0 109 8 217q-27 18 -72 18q-43 0 -126 -17.5t-126 -17.5q-49 0 -81 15q-20 88 -21 208z" />
<glyph unicode="5" horiz-adv-x="1011" d="M92 786q0 176 72 328q-8 43 -8 51q0 14 6 27q51 23 114 22q37 0 106 -16t105 -16q37 0 108 17.5t107 17.5q59 0 98.5 -38t39.5 -98q0 -12 -2 -22q-16 -4 -39 -4q-31 0 -91.5 8t-91.5 8q-25 0 -71.5 -3t-69.5 -3q-41 0 -122 16.5t-120 16.5q0 -51 -21.5 -149.5 t-21.5 -149.5q0 -74 41 -123q45 4 168 57q113 49 187 49q53 0 121 -41q61 -35 102 -79q86 -98 86 -256q0 -168 -94 -283q-100 -123 -264 -123q-279 0 -435 186q-2 18 -2 43v37h15q29 0 43 -4q156 -133 338 -133q121 0 173 29.5t83 97.5q31 61 30 125q0 39 -14 105.5 t-31.5 93t-115.5 79.5h-29q-16 0 -46 -3t-46 -3q-29 0 -123 -54t-148 -54q-74 0 -127 86q-10 68 -10 155z" />
<glyph unicode="6" horiz-adv-x="1091" d="M109 590q0 379 393 698q16 6 37 6q41 0 79 -14l15 -33q-180 -98 -302 -301t-122 -405q0 -197 123 -308q29 18 39 56q31 123 134 208t230 85q94 0 169 -77t75 -173q0 -68 -71.5 -131.5t-141.5 -71.5q-102 -80 -266 -80q-123 0 -232.5 89t-148.5 210q-2 4 -2 105 q0 25 -4 69.5t-4 67.5zM473 186q25 -18 66 -18q82 0 198 61q129 70 129 144q0 37 -50 65.5t-89 28.5q-86 0 -172 -90t-82 -174v-17z" />
<glyph unicode="7" horiz-adv-x="1214" d="M102 1169q14 2 44 20.5t49 18.5h612q37 0 107.5 29t109.5 29q41 0 74 -23l2 -84q2 -209 -47 -442q-14 -53 -37 -156v-10q0 -33 -10.5 -99.5t-10.5 -99.5q0 -57 25 -98q-18 -86 -70 -240q-14 -2 -28 -14q-80 35 -80 96q0 25 12 62q16 45 18 59q70 352 70 356 q35 207 35 361q0 86 -12 166q-31 4 -68 4q-53 0 -157.5 -9.5t-157.5 -9.5q-88 0 -144 21q-57 -4 -123 -4q-100 0 -200 10q-6 20 -13 57z" />
<glyph unicode="8" horiz-adv-x="1146" d="M80 987q0 23 4 45q70 109 166 150q68 27 192 30q162 4 222 17q23 2 43 2q35 0 59 -2q76 -12 163 -128t87 -196q0 -100 -129 -205q-20 -16 -215 -141q14 -18 182 -158q131 -106 131 -174q0 -20 -10 -41q-72 -135 -334 -135q-123 0 -283 119q-170 127 -170 244q0 18 7 39 q16 20 100 79q78 53 82 62q-297 193 -297 393zM184 948q0 -145 308 -305h8q84 -2 236.5 97.5t152.5 177.5q0 131 -98 192q-98 -8 -197 -16q-86 -12 -174 -109l-33 35q2 31 25 72l-29 18q-199 -37 -199 -162zM313 389q29 -102 133 -164q94 -53 209 -53q135 0 213 74 q-61 84 -159 149q-27 16 -191 109q-131 -51 -205 -115z" />
<glyph unicode="9" horiz-adv-x="1208" d="M109 944q0 57 26 103q72 119 204 191.5t273 72.5q49 0 93 -8q84 -16 196.5 -120t149.5 -190v-65q0 -74 7 -219t7 -217q0 -37 -14 -103q-14 -74 -17 -102q-2 -115 -16 -346q-53 -27 -107 -27q-33 35 -32 68q0 96 30.5 285.5t30.5 285.5q0 119 -39 162q-252 -109 -438 -109 q-158 0 -256 90t-98 248zM213 907q0 -20 14 -57q55 -135 285 -135q117 0 246 61q155 72 155 172q0 94 -100 178t-197 84q-109 0 -251 -96q-152 -104 -152 -207z" />
<glyph unicode=":" horiz-adv-x="524" />
<glyph unicode=";" horiz-adv-x="548" />
<glyph unicode="&#x3c;" horiz-adv-x="1335" />
<glyph unicode="=" horiz-adv-x="1073" />
<glyph unicode="&#x3e;" horiz-adv-x="1452" />
<glyph unicode="?" horiz-adv-x="1103" />
<glyph unicode="@" horiz-adv-x="1347" d="M113 565q0 344 323 631q41 37 127 98q35 16 121 17q145 0 289 -68q160 -76 221 -194q29 -55 29 -101q0 -8 -3 -26.5t-3 -28.5q0 -20 5 -61.5t5 -61.5q0 -125 -29 -229q-18 -37 -55 -113q-106 -238 -412 -238q-33 0 -53 3q-49 6 -148 92q-88 76 -127 129q-27 39 -51 151 q-23 102 -22 162q0 23 37 113q66 72 190 71q141 0 334 -86q51 -53 51 -141q0 -186 -160 -315l21 -19q162 25 237 176q59 121 60 303q0 86 -13 166q-29 35 -79 80l-86 74q-90 16 -254 41q-27 -23 -80 -47q-59 -31 -80 -43q-123 -82 -194.5 -223.5t-71.5 -292.5 q0 -150 77 -299q16 -41 48 -125q18 -47 90 -117q80 -74 125 -74q20 0 57 5.5t55 5.5q125 0 137 -132l-28 -28q-31 4 -115 4q-72 0 -110 10q-143 43 -279 236q-117 162 -168 333q-18 63 -18 162zM487 707q0 -70 58 -160q63 -98 129 -96l18 2q39 27 66 82q39 78 49 94 q-33 33 -25 88q-57 33 -127.5 44t-138.5 21q-29 -29 -29 -75z" />
<glyph unicode="A" horiz-adv-x="894" d="M20 270q0 252 58 451q162 549 373 641q94 -10 153 -158q47 -115 49 -231q-27 -2 -47 -23v-6q0 -31 19 -72l24 37q31 -47 31 -131l-29 -24l-47 10q0 -57 -7 -175t-7 -177q0 -164 74 -281h57q55 63 158 195q50 71 81 71h1q38 0 38 -78q0 -59 -32 -112q-39 -59 -133 -131 q-104 -78 -164 -78q-98 0 -142 156q-23 115 -45 229l2 8l-6 12q-6 -109 -112 -299q-116 -210 -210 -210h-1q-135 0 -136 376zM123 256q0 -150 37 -272q51 45 114 151q84 139 121 322q25 121 37 342q2 84 6 168q12 131 54 131q18 0 51 -2q-10 115 -80 159q-70 -70 -98 -102 q-61 -70 -76 -113q-18 -74 -62 -219q-27 -70 -69 -213q-35 -145 -35 -352z" />
<glyph unicode="B" horiz-adv-x="1165" d="M2 -74q0 80 18.5 239t18.5 238v418q0 12 -6 34t-6 32q33 18 57 49q14 156 88 246q84 104 234 104q127 0 184 -18q51 -18 121.5 -124t70.5 -161q0 -147 -288 -408q41 -35 118 -59q115 -35 125 -39q72 -29 138.5 -105.5t93.5 -150.5q16 -8 35 -8q39 0 79 37q49 41 62 45 q66 57 100 57q29 0 29 -39q0 -25 -17 -71q-16 -53 -32 -56q-118 -74 -180 -74q-8 0 -15 1q-4 -14 -4 -33q0 -164 -199 -285q-174 -108 -345 -108h-3q-92 0 -204.5 80.5t-159.5 80.5q-35 0 -58 -32q-55 27 -55 110zM154 260q0 -55 4 -108q90 22 225 22h12q51 0 154.5 -3 t155.5 -3q108 0 135 20v5q-43 109 -207 178q-139 57 -277 57q-109 0 -194 -35q-8 -57 -8 -133zM162 -4q127 -201 340 -201q121 0 229.5 64.5t165.5 171.5q0 10 4 21t12 9l-18 21q-70 -14 -182 -19q-147 -2 -185 -6q-98 -4 -194 -6q-135 -10 -172 -55zM166 719q0 -78 10 -187 q139 14 314.5 176.5t175.5 297.5q0 111 -127 176q-90 8 -105 8q-20 0 -35 -4q-233 -70 -233 -467z" />
<glyph unicode="C" horiz-adv-x="897" d="M27 362q0 354 79 551q127 311 244 312q88 0 142 -76q10 0 20 -10q27 29 51 37q37 -37 37 -93q0 -188 31 -319q2 -8 20 -53q10 -31 11 -54l-3 -8q-14 -25 -47 -65h-55q-59 117 -59 290q0 98 -9 134q-18 61 -79 106q-12 0 -23 12q-104 -66 -151 -157q-49 -100 -82 -269 q-29 -152 -29 -280q0 -395 240 -463q25 -6 49 -6q111 0 266 129q127 106 209 227q63 94 96 94t33 -51q0 -78 -39 -137q-12 -16 -74 -76q-305 -287 -489 -287q-170 0 -287 177q-102 156 -102 335z" />
<glyph unicode="D" horiz-adv-x="1325" d="M-229 1450q45 25 84 25q61 0 170 -27q61 -27 186 -66q45 -4 135 -20q184 -51 367 -102q225 -70 358 -158q174 -115 238 -283q14 -39 14 -88q0 -94 -57 -188q-31 -61 -107 -174q-106 -119 -338 -230q-201 -94 -389 -139q-12 -2 -24 -2q-18 0 -51 4t-52 4q-61 0 -119 -57 q-43 0 -82 39v67q88 66 248 76q0 6 13 522v46q0 148 10 403l41 104q31 -16 41 -41q18 -49 18 -268q0 -84 -7 -250t-7 -248q0 -135 12 -245q10 -12 27 -13q12 0 26 6q215 74 420 215q268 186 268 349q0 213 -358 383q-229 111 -551 182q-100 27 -203 53q-121 33 -206 33 q-29 0 -58 -4q-53 33 -67 92z" />
<glyph unicode="E" horiz-adv-x="874" d="M10 12q0 139 240 303q188 131 371 189v6q0 12 -9 18q-88 12 -174 25q-119 23 -180 61q-82 51 -82 140q0 41 17 84q236 262 509 262q199 0 324 -164l-12 -55l-58 -9l2 13v6q0 66 -81 104q-70 33 -150 33q-119 0 -240 -74q-113 -68 -186 -172q-2 -18 -2 -39v-28 q51 -57 225 -78q193 -25 262 -70q6 -23 7 -55v-37q-59 -39 -252 -127q-172 -78 -254 -141q-125 -94 -160 -221l45 -43q104 8 281 110q49 29 286 187q150 100 193 100q53 0 53 -47q0 -43 -49 -90q-90 -35 -219 -123q-154 -104 -211 -135q-8 -4 -103 -35q-66 -20 -86 -51 q-10 -4 -174 -27q-133 78 -133 180z" />
<glyph unicode="F" horiz-adv-x="1468" d="M20 403l5 41q205 27 614 95q39 31 78 108q31 61 59 123q90 164 180 326q96 201 97 354q0 20 -2 41q-27 39 -64 57q-264 -84 -432 -202q-27 -23 -82 -66q-23 -10 -67 -37q-176 -102 -216 -268l13 -14q35 -14 86 -15q41 0 124 11.5t126 11.5q31 0 59 -4l-12 -31 q-31 -6 -170 -39q-102 -27 -170 -27t-140 17q-2 25 -26 65q33 35 33 66q0 8 -2 23.5t-2 23.5t26 51q74 115 250 240q143 102 303 176q203 96 299 96q102 0 139 -45q31 -39 31 -143q0 -119 -49 -252q-31 -80 -109.5 -234.5t-109.5 -236.5q-27 -31 -80 -88v-35q0 -14 12 -14 q63 0 383 108q377 129 424 141q10 2 23 2q33 0 69 -12l2 -12q0 -29 -29.5 -50.5t-58.5 -39.5l-12 2q-63 0 -322 -84q-322 -106 -348 -113q-66 -16 -131 -31q-70 -23 -108 -73q-74 -98 -189 -338q-117 -246 -141 -359q-4 -43 -18 -112q-23 -47 -101 -47q-63 0 -63 34 q0 55 172 369q180 332 202 453q-31 4 -67 4q-80 0 -213 -23q-154 -27 -211 -30q-10 8 -64 36z" />
<glyph unicode="G" horiz-adv-x="1214" d="M29 438q0 94 16 154q57 211 270 426q203 203 422 289q33 14 64 14q68 0 160 -78q10 -18 10 -49q0 -14 -3 -45t-3 -45l-58 -10q8 27 8 55q0 27 -8 53q-43 18 -86 19q-90 0 -170 -58q-68 -59 -135 -119q-39 -29 -110 -90q-113 -106 -189 -247q-88 -160 -88 -295 q0 -98 43 -164q51 -76 145 -76q39 0 113 12q168 29 236 49q123 39 211 115q47 100 141 256v31l-45 2h-12q-126 0 -318 -39q-262 -55 -326 -63q-29 27 -28 63l2 8q160 55 405 90l414 62q64 -29 64 -86q0 -41 -156 -346q-178 -346 -197 -392q-8 -23 -14 -112q-4 -68 -41 -101 q-113 2 -113 86q0 55 54 156q68 129 75 158l-20 33q-53 -10 -209 -60q-129 -43 -211 -43q-57 0 -111 19q-123 43 -168 143q-34 74 -34 217v8z" />
<glyph unicode="H" horiz-adv-x="847" d="M-14 248q29 14 88 14q80 143 80 451q0 35 -3.5 106.5t-3.5 106.5q0 164 54 237q31 -18 30 -41v-608q0 -47 -14 -115q-10 -59 -22 -116q33 -37 86 -37q23 0 64.5 8t62.5 8l28 33q2 61 15 227q10 143 10 228q0 2 -8 106q-12 125 -13 244q0 154 27 282q27 25 57 29l23 -29 q-10 -171 -10 -357v-62v-699q35 -8 71 -8q72 0 183.5 48t109.5 48q29 0 29 -41q0 -57 -33 -84q-39 -35 -131 -57q-82 -23 -145 -23q-47 0 -78 9q-8 -20 -11 -58q-1 -14 -1 -31t1 -38q2 -53 3 -62q0 -137 -74 -196q-88 20 -168 84q-70 63 -139 125q-25 -106 -25 -130 q0 -25 10.5 -72.5t10.5 -72.5q0 -70 -27 -125q-33 -68 -96 -82q-18 10 -39 41q20 141 41 283q20 162 26 284q-69 62 -69 121v21zM170 106q133 -186 231 -200q27 41 27 125q0 68 -14 121q-31 0 -98.5 -3.5t-100.5 -3.5q-47 0 -45 -39z" />
<glyph unicode="I" horiz-adv-x="1122" d="M-14 -18q39 76 207 116q106 27 327 52q215 23 271 38q22 51 22 131v7q0 152 -61 280q-74 152 -205 187q-147 37 -277 122v43q51 35 107 35q59 0 125 -35q6 -4 110 -69q82 -51 236 -76l14 -33q-27 -14 -74 -49q10 -27 46 -77t47 -79q23 -59 24 -174q2 -123 17 -174 q18 4 114 41q90 35 94 35q14 0 29 -28t15 -44q0 -35 -54 -57q-76 -31 -102 -41q-57 -20 -105 -27q-18 -25 -34 -65q-14 -33 -27 -68q-68 -152 -197 -247q-137 -98 -297 -99q-31 0 -59 4q-94 57 -180 154q-92 100 -133 197zM111 -29v-43q149 -200 265 -200h1q119 0 257 109 t154 226l-30 17q-84 -23 -326 -43q-207 -18 -321 -66z" />
<glyph unicode="J" horiz-adv-x="886" d="M-512 739q0 68 72 84q121 104 301 189q199 94 338 94q43 0 112 -14q84 -14 111 -19q109 -10 203 -63q106 -61 143 -152q20 -47 20 -143q0 -53 -6 -156.5t-6 -157.5q0 -61 8 -94h15q27 0 88 45t98 45q27 0 47 -20v-5q0 -73 -56 -122q-58 -51 -138 -64q-18 2 -62 -12 q-47 -354 -192 -680q-172 -383 -353 -383q-35 0 -67 12q-84 74 -117 153t-33 196q0 248 228 483q154 160 442 336q6 84 6 174q0 406 -123 479q-113 68 -368 68q-27 0 -58 -6q-383 -90 -501 -261q55 -51 149 -75q84 -16 166 -35q2 -2 125 -55q47 -16 95 -35t79 -64 q-231 49 -692 158q-74 20 -74 100zM145 -729q20 -61 72 -62q88 0 240 265q127 221 164.5 356t37.5 303q-82 -47 -239 -153q-262 -197 -275 -709z" />
<glyph unicode="K" horiz-adv-x="808" d="M-74 483l13 56q31 10 69 10q33 0 58 -8q29 18 28 53q0 10 -3 30.5t-3 32.5v15q12 195 49 581q16 4 29 17q18 -12 51 -43q2 -49 2 -105q0 -182 -22 -573l20 -21q184 115 279 349q27 68 125 436q27 106 106 239l21 -28q4 -37 4 -74q0 -178 -103 -522q-8 -27 -31 -64 q-33 -53 -36 -61q-80 -156 -107 -195q-59 -90 -156 -162q178 -268 299 -268q45 0 97.5 35t77.5 76q18 37 36 73q29 47 64 48q45 0 45 -72q0 -104 -112.5 -197.5t-219.5 -93.5q-174 0 -315 236q-49 -49 -72 -150q-23 -119 -49 -158q-16 -8 -37 -8q-25 0 -45 13 q-29 68 -29 184q0 16 11 209q-23 27 -70 57q-55 35 -74 53zM174 295q10 2 21.5 19.5t11.5 27.5q-10 -2 -21.5 -18.5t-11.5 -28.5z" />
<glyph unicode="L" horiz-adv-x="1073" d="M-20 -233q0 295 264 624q57 70 73 86q47 41 103 43q43 39 65 111q14 61 31 125q-168 12 -318.5 189t-148.5 349h43q106 -190 160 -264q125 -170 231 -170q31 0 60 14q31 68 75 210.5t74 207.5q35 76 117 162q96 98 164 98q10 0 20 -2q90 -70 90 -237q0 -84 -18 -148 q-23 -88 -166 -221t-235 -153q-61 -113 -109 -314q23 -25 133 -184q80 -119 156 -154q86 14 129 51q25 23 82 111q70 106 106 107q31 -1 31 -64q0 -104 -103.5 -217t-205.5 -113q-98 0 -164 66q-16 16 -96 133q-59 82 -123 109q-20 -43 -45 -127q-27 -90 -43 -129 q-150 -358 -295 -543h-8q-129 0 -129 244zM98 -227q0 -23 2 -43q98 113 162 293q52 161 103 321q-115 -115 -187 -262q-80 -162 -80 -309zM727 965q98 43 171 160t73 223q0 33 -8 59q-92 -16 -166 -184q-55 -133 -70 -258z" />
<glyph unicode="M" horiz-adv-x="1470" d="M-154 836q39 84 150 149q104 59 203 64q194 -99 194 -324q0 -59 -12 -172t-12 -168q0 -37 4 -72l266 406q158 229 297 383q78 -6 106 -68q16 -39 22.5 -133t22.5 -131q66 98 205 295h43l35 -41q8 -47 8 -104q0 -158 -43 -371q-41 -182 -82 -365q39 -29 47 -28 q37 0 131.5 126t118.5 126q31 0 31 -76q0 -72 -22 -111q-33 -57 -136 -139q-111 -88 -166 -88q-45 0 -100 24q-22 35 -22 99v6q0 125 49 328q59 240 69 323l-20 21q-66 -74 -186 -256q-2 -78 -93.5 -291t-148.5 -268q-45 4 -82 40q10 51 43 127q41 94 51 125 q131 403 152 625l-31 45q-207 -264 -418 -627q-53 -90 -151 -233q-117 -172 -156 -234l-80 -4q-24 39 -24 79q0 11 67 218q123 371 123 551q0 215 -115 258q-109 -6 -311 -123z" />
<glyph unicode="N" horiz-adv-x="886" d="M-127 915q0 23 18.5 63t18.5 62l33 19q0 2 0 -51q0 -35 37 -60q53 14 141 58q98 47 141 61q59 -27 80 -88q12 -33 18 -121q6 -80 25 -119q47 66 137 275q78 178 156 256q33 -2 59 -29q20 -25 43 -49q12 -53 13 -125q0 -94 -23 -219q-20 -106 -43 -215q-6 -66 -20 -197 q-2 -14 -23 -117q-12 -72 -12 -118q0 -45 10 -78q166 125 219 215q12 20 25.5 44t34.5 24q47 0 47 -72q0 -51 -33 -101q-39 -61 -182 -182q-156 -127 -209 -127q-10 0 -19 2q-35 57 -35 117q0 35 23 193q20 145 51 387q8 76 39 196q35 147 45 197q-12 16 -29 20 q-106 -207 -303 -626q-39 -88 -145 -439q-14 -51 -29 -104q-20 -61 -43.5 -99t-77.5 -53q-41 39 -41 99q0 53 80 301q55 160 111 321l33 15q0 61 8 184t8 184q0 51 -4 96l-20 23q-27 -8 -123 -51q-74 -35 -125 -35q-70 0 -115 63z" />
<glyph unicode="O" horiz-adv-x="927" d="M45 193q0 319 82 712q96 477 250 643q74 78 133 78q104 0 184 -76q59 -59 117 -176l86 -188q123 113 123 307q0 41 -6 84q16 4 30 16q43 -41 54.5 -72.5t11.5 -97.5q0 -250 -195 -419q-14 -27 -14 -58q0 -23 6 -69t6 -68q0 -322 -180 -615.5t-465 -447.5h-8 q-49 0 -131 51l-51 72q-33 152 -33 324zM162 172q0 -147 28 -266q39 -27 80 -27q12 0 23 2q225 180 358 410q150 256 150 516q0 27 -2 55l-27 29q-98 -74 -209 -74q-141 0 -311 121q-4 -25 -57 -381q-33 -231 -33 -385zM342 1163q0 -37 20 -108q92 -100 228 -103 q57 27 170 90q18 29 18 76q0 82 -59 221q-66 150 -129 174q-14 6 -41 7q-8 0 -35 -17q-51 -31 -86 -96.5t-37 -124.5q-49 -49 -49 -119z" />
<glyph unicode="P" horiz-adv-x="608" d="M72 555q6 45 44 65.5t77 38.5q20 31 28 105l8 110q57 506 181 709q29 51 108 96q29 16 51 17q80 0 179.5 -108.5t107.5 -190.5q8 -66 8 -211l-18 -68q-31 -125 -51 -174q-29 -70 -93 -158q-18 -43 -69 -122q-98 -106 -219 -166q-37 -16 -109 -56q-23 -119 -57 -356 l-8 -156q-12 -102 -76 -120q-25 12 -39 40q-6 51 -6 107q1 82 25 248q23 153 22 237v13q-57 41 -94 100zM332 631q0 -33 18 -43q180 76 301 313q109 217 109 430q0 96 -53 166q-56 78 -145 78h-5q-106 -88 -151 -344q-23 -197 -46 -391q-2 -18 -18 -105q-10 -63 -10 -104z " />
<glyph unicode="Q" horiz-adv-x="964" d="M51 156q0 127 43 315q23 59 53 184q29 233 91 373q78 180 239 295q68 47 137 47q27 0 54 -10q154 -59 243.5 -206.5t89.5 -315.5q0 -240 -229 -519q-2 -14 -2 -32q0 -137 39 -310q10 -45 45 -112q41 -78 51 -111q-10 -12 -12 -26q-27 -14 -62 -15q-10 0 -20 2 q-23 14 -61 49q-23 102 -43 203q-25 117 -56 201q-313 -248 -493 -256q-106 51 -107 244zM166 47q18 -8 41 -8q135 0 362 219q27 25 60 61q10 18 10 54q0 76 -64.5 237.5t-64.5 177.5l33 35h45q45 -57 80 -161q47 -139 61 -170h25q59 68 103 177t44 197q0 121 -70 244 q-82 143 -192 143q-55 0 -141 -75.5t-109 -130.5h12h6q43 0 68 -25v-12q0 -39 -96 -117q-84 -160 -148 -379q-69 -235 -69 -393q0 -41 4 -74z" />
<glyph unicode="R" horiz-adv-x="1097" d="M23 -76q0 68 52 194t52 195l-2 21q-72 96 -72 182q0 20 4 43q16 29 64 29q68 2 74 4q55 55 79 172q39 178 45 190q66 186 134 375q90 213 211 328l12 2q100 0 166 -135q57 -113 57 -226q0 -156 -45 -274q-43 -106 -141 -201q-45 -45 -189 -155q-123 -92 -184 -164 q-27 -33 -34 -82t-13 -96q174 -221 397 -222q92 0 213 56.5t176 128.5q23 35 45 69q33 47 62 48q35 0 35 -74q0 -88 -93 -176q-170 -164 -432 -164q-233 0 -448 203q-121 -203 -119 -306q-27 -18 -80 -53q-27 37 -26 88zM403 688q154 74 274 250t120 340q0 141 -92 248 q-55 -63 -84 -103q-53 -72 -68 -110q-6 -33 -21 -99q-18 -57 -53 -174q-2 -4 -76 -352z" />
<glyph unicode="S" horiz-adv-x="972" d="M2 -236q31 94 94 203q-10 57 -33 150l54 41q45 -25 98 -25q227 240 348 549q-80 397 -80 565q0 295 150 527l57 -5q125 -145 125 -385q0 -178 -29 -331q-8 -37 -57 -203q-37 -123 -37 -213q0 -100 39 -244q35 -117 70 -235q74 23 123 86q31 51 62.5 101t68.5 50 q49 0 49 -59q0 -61 -68 -154q-61 -84 -121 -123q-33 -18 -98 -59q-47 -135 -72 -188q-59 -125 -118 -144q-25 -8 -64 -8q-96 0 -211 86q-152 111 -194 129q-25 -41 -99 -111h-57zM262 -29q29 -76 106.5 -127t159.5 -51q135 0 164 137l-16 29q-70 -27 -164 -27 q-113 0 -250 39zM358 88q76 -29 156 -29q94 0 178 39q-12 119 -92 381q-160 -229 -242 -391zM590 1169q0 -37 18 -115q16 -70 15 -109v-9q14 12 30 14q20 117 41 232q21 137 21 235q0 92 -21 160q-104 -43 -104 -408z" />
<glyph unicode="T" horiz-adv-x="1128" d="M39 700q86 96 147 134q338 193 779 370q225 96 450 191q264 109 467 145q82 14 109 14t67 -41q4 -10 4 -20q0 -82 -196 -135l-49 61q-231 -37 -789 -289q-444 -201 -774 -382q-41 -23 -98 -74q-74 -66 -97 -82q-22 34 -22 80q0 16 2 28zM696 102q0 35 27 103 q16 45 27 123q10 94 18 123q45 190 45 333q0 57 -8 111q12 61 63 117q23 -14 52 -56q8 -24 8 -108q0 -219 -49 -412q-8 -31 -80 -422q-18 -6 -56 -14q-47 45 -47 102z" />
<glyph unicode="U" horiz-adv-x="940" d="M-346 809q0 164 188 319q180 147 348 148q119 0 191 -154q57 -123 57 -258q0 -115 -53 -323q-55 -219 -59 -324q172 221 247 504q29 102 105 553q10 63 37 102l8 2q45 0 70 -43q22 -34 22 -80q0 -29 -33 -217q-71 -397 -71 -684v-8q0 -117 12 -219l20 -21 q131 123 203 232q49 76 82 76q35 -1 35 -60q0 -84 -102 -217q-16 -20 -166 -190q-31 -2 -90 -25q-72 51 -91 213q-23 199 -45 244q-55 -72 -174 -293q-100 -188 -194 -274q-59 25 -90 77q18 119 122 490q86 303 86 495q0 291 -149 291q-137 0 -266 -116q-135 -121 -135 -254 q0 -25 4 -50q28 -24 62 -24h3q27 0 77 12t77 12q33 0 65 -12l-6 -43q-29 -6 -129 -47q-78 -31 -131 -31q-20 0 -39 4q-98 82 -98 193z" />
<glyph unicode="V" horiz-adv-x="679" d="M47 1108l39 53q31 -16 39 -41q6 -14 35 -205q31 -213 65 -544q37 47 62 145q102 397 286 707q229 385 535 526q35 16 104 16q118 0 177 -90q-2 -49 -41 -106q-31 2 -80 36.5t-78 34.5q-18 0 -100 -14q-436 -293 -660 -967q-27 -76 -115 -481q-18 -86 -43 -184 q-8 -14 -47 -53q-53 4 -80 53q-10 20 -24 207q-12 168 -12 227q0 137 -23 340q-20 170 -39 340z" />
<glyph unicode="W" horiz-adv-x="1191" d="M86 1329l57 14q35 -53 47 -114q39 -193 39 -537q0 -49 -12 -145t-12 -146q0 -86 24 -141h11q117 156 194 440q45 166 96 482l25 2q41 0 68 -15q88 -227 110 -559q2 -2 2 -200q0 -96 25 -189q25 10 49 47q100 152 141 400q33 213 64 426q10 49 37 123q35 104 41 122 q29 111 55 222q51 161 112 161h1q35 0 71 -36v-23q0 -59 -43 -180q-41 -25 -63 -88q-18 -53 -35 -109q-53 -143 -86 -391q-41 -311 -62 -397q-29 -123 -105.5 -262.5t-164.5 -235.5h-67q-12 14 -50 66q-6 57 -24 380q-12 233 -47 381q-27 -25 -29 -45q-4 -27 -6 -51 q-16 -47 -49 -145q-94 -291 -123 -357q-108 -254 -209 -254h-6l-37 41q-23 117 -23 277q0 86 10.5 256t10.5 256q0 104 -14 262q-20 227 -23 262z" />
<glyph unicode="X" horiz-adv-x="913" d="M-276 727q2 86 140 222t226 136q47 0 84 -43q45 -53 111 -346q20 -92 39 -184q29 -102 94 -158q80 147 137 394q25 100 80 411q10 66 20 129q12 74 32 121t75 92l10 2q27 0 72 -28q0 -35 -45 -80q-2 -35 -21 -86q-25 -72 -28 -86q-12 -49 -19 -136q-8 -98 -14 -135 q-49 -285 -127 -397q-10 -68 -37 -170q-41 -168 -41 -170q100 -102 174 -102t180.5 146.5t143.5 146.5q32 0 32 -66q0 -41 -61 -127q-160 -227 -287 -227q-86 0 -198 86l-43 -35q-43 -145 -80 -307q-10 -43 -76 -199q-49 -121 -49 -205q0 -53 18 -102q-41 -41 -57 -41 q-35 0 -66.5 29.5t-31.5 64.5q0 10 12 37q8 20 100 309q59 182 150 576q-109 139 -168 385q-68 268 -133 377q-63 -4 -166 -105q-131 -131 -152 -143q-14 12 -30 14z" />
<glyph unicode="Y" horiz-adv-x="1013" d="M41 -104q0 78 9 231.5t9 230.5v478q0 43 56 94q43 -45 43 -68v-766q0 -45 -6.5 -136t-6.5 -132l19 -33q166 125 297 377q117 225 162 457q6 33 14 223q4 117 68 225h40q37 -35 37 -80q0 -109 -22.5 -326.5t-22.5 -326.5q0 -150 23 -266q127 74 149 90q63 49 111 137 q55 104 98 105q41 -1 41 -58q0 -51 -57.5 -133t-110.5 -131q-68 -53 -137 -106q-86 -72 -100 -134q-10 -41 -13 -106q0 -43 2 -117q2 -86 2 -110q0 -182 -12 -283q-6 -41 -31 -111q-29 -80 -34 -110q-29 -127 -41 -162q-29 -78 -92 -139q-113 68 -113 413q0 412 164 705 q39 72 48 104.5t9 112.5q0 213 -31 219q-195 -352 -198 -358q-125 -199 -275 -297q-98 66 -98 287zM543 -772q0 -92 16 -211q76 182 76 479v88v88q-92 -225 -92 -444z" />
<glyph unicode="Z" horiz-adv-x="1658" d="M70 641v57q47 27 55 27h416q27 0 70.5 12.5t64.5 14.5q172 197 182 335l-33 17q-150 -20 -301 -39q-199 -35 -262 -117q-35 2 -59.5 32t-22.5 62v13q94 84 326 123q178 29 358 55q21 -3 69 -3q24 0 56 1q37 -43 37 -94q0 -63 -68 -181l-102 -172l53 -2h12q140 0 339 45 q309 72 344 78q29 4 63 4h39q14 -17 53 -80q-23 -25 -26 -53q-92 -6 -498 -55q-88 -12 -227 -41q-186 -39 -228 -45q-94 -92 -176 -223q-88 -141 -117 -258l33 -19q356 31 510 62q289 57 473 182q33 0 82 -53v-56q-281 -172 -885 -245q-195 -25 -219 -25q-47 0 -112 49 q-14 25 -15 60q0 86 88 239q72 113 144 223v35q-4 2 -45 17q-205 -10 -236 -11q-145 0 -235 29z" />
<glyph unicode="[" horiz-adv-x="999" d="M63 1522v12q12 12 15 27q428 25 672 51q16 -14 18 -31l-6 -6q-88 -39 -270 -96q-90 -6 -271 -27q-10 -8 -10 -25q0 -23 4 -28q20 -49 55 -154q27 -98 39 -237q8 -121 17 -240q2 -31 18 -119q12 -76 12 -121q0 -23 -20 -180q-14 -98 -14 -221l22 -18q78 2 350 36 q109 14 129 15q37 0 80 -45q-12 -70 -104 -111q-29 4 -62 4q-59 0 -155 -16q-121 -23 -154 -25q-14 -2 -66 -10q-39 -8 -63 -8q-78 0 -109 51l-2 70q0 96 19 274q20 186 20 277q0 35 -7 106.5t-7 108.5v55q2 35 2 53q0 184 -135 498q-16 39 -17 80z" />
<glyph unicode="\" horiz-adv-x="1394" d="M66 1380q0 45 26 74q20 2 31 2q37 0 62.5 -19.5t123.5 -133.5q106 -121 273 -345q186 -254 266 -348q84 -113 264 -325q55 -47 109 -97q73 -67 73 -110q0 -68 -129 -78q-315 430 -788 1042q-53 68 -152 162q-127 123 -157 156q-2 10 -2 20z" />
<glyph unicode="]" horiz-adv-x="1214" d="M145 1632l2 10q12 6 27 7q10 0 71.5 -16.5t102.5 -16.5q119 0 338 59q55 18 172 37q31 -35 35 -65q20 -125 22 -330q6 -274 9 -330q12 -180 47 -395q14 -63 33 -191v-12q0 -12 -1.5 -12t-3.5 -4v-11q-4 -51 50 -186q55 -141 55 -192q0 -43 -37 -84q-186 0 -260 -17 q-20 -6 -84 -35q-51 -23 -86 -22q-18 0 -66.5 10t-74.5 4q-80 47 -154 47q-47 0 -78 -24q-70 27 -69 143q31 18 77 19q55 0 167 -25t169 -25q63 0 156 19q78 16 156 33l10 -15l31 54q-98 221 -132 575q-20 299 -38 596q-14 150 -15 158q-14 98 -47 145q-61 0 -183 -24.5 t-186 -24.5q-225 0 -215 141z" />
<glyph unicode="^" horiz-adv-x="1005" d="M129 418q0 23 41 168q27 94 53 186q16 80 56 238q14 43 67 93t96 50q25 0 43 -18q92 -227 142 -326q104 -207 204 -281q-27 -70 -83 -69q-18 0 -37 4q-70 68 -156 233.5t-149 231.5l-29 -33q-70 -332 -139 -533q-31 -14 -80 -14h-15q-14 31 -14 70z" />
<glyph unicode="_" horiz-adv-x="1484" d="M250 66q12 20 39 61q303 39 424 39q96 0 288.5 2t288.5 2q6 0 17.5 4t17.5 4q25 0 55 -37q9 -34 17 -104q-4 -2 -56 -37q-106 51 -337 51q-164 0 -613 -35q-33 -2 -74 -20q-43 23 -67 70z" />
<glyph unicode="`" horiz-adv-x="952" d="M301 1227v8q0 23 27 76l67 -4q84 -68 422 -283v-57q-125 14 -274 94q-133 70 -242 166z" />
<glyph unicode="a" horiz-adv-x="808" d="M-4 88q0 426 258 705q33 14 65 14q43 0 91 -33q2 -2 77 -61q16 12 24.5 36.5t14.5 47.5l80 -6q2 -25 29 -99q-61 -152 -80 -344q16 -70 53 -205q8 -2 19 -2q72 0 154.5 135.5t117.5 135.5q37 0 37 -74q0 -66 -35 -119q-20 -31 -108 -120t-109.5 -98t-44.5 -9 q-66 0 -119 92q-68 119 -88 135q-184 -274 -305 -274q-51 0 -91 46t-40 97zM115 152q0 -35 4 -68h43q86 78 147 170q37 51 115 192q-6 25 -21 74q14 25 15 64q0 78 -62 104q-111 -74 -180 -239q-61 -150 -61 -297z" />
<glyph unicode="b" horiz-adv-x="741" d="M47 -66v617q14 35 16 96q2 51 5 101q16 190 28 256q27 135 94 241h9h7q27 0 54 -14q6 -25 6 -66v-49q-2 -33 -2 -49q0 -86 -43 -261q-41 -167 -41 -262v-9v-19q4 41 25 47q51 -12 69 -98q29 -137 43 -168q45 -98 160 -133q33 -10 64 -10q66 0 127 69q14 16 92 129 q47 70 80 70q32 0 32 -51q0 -106 -120.5 -227t-227.5 -121q-84 0 -170 75q-18 -12 -22 -35q-4 -14 -2 -40q4 -39 4 -41q0 -16 -30 -78t-58 -123q-37 -63 -103 -78q-96 72 -96 231zM145 -80q0 -35 27 -55q70 112 70 229q0 111 -68 264q-29 -209 -29 -438z" />
<glyph unicode="c" horiz-adv-x="587" d="M10 205q0 86 39 176q20 49 85 160.5t151 111.5q94 0 170 -96q-6 -18 -15 -55q-20 0 -61 3t-64 3q-68 0 -116 -98q-37 -76 -74 -154l-2 -10q0 -18 5 -50t5 -46q33 -29 133 -29q96 0 189 76q47 39 129 139q59 76 84 76q41 0 41 -68t-50 -129q-186 -231 -421 -231 q-78 0 -113 12q-53 20 -86 86q-29 59 -29 123z" />
<glyph unicode="d" horiz-adv-x="653" d="M-53 6q0 164 112 412q127 281 267 301q27 231 53 463q45 266 203 405q33 -16 75 -65l13 -52q-10 -53 -11 -219q0 -143 -45 -266q-8 -45 -30 -135q-49 -123 -97 -246q-51 -141 -51 -256q0 -119 51 -231h31q61 78 168 239q29 55 51 56q43 0 43 -78q0 -43 -39 -101 q-51 -82 -104 -165q-76 -98 -154 -99q-14 0 -28 2q-10 23 -60 76q-14 72 -61 207q-74 -106 -148 -211q-106 -147 -182 -147q-8 0 -16 2q-10 10 -37 51q-4 29 -4 57zM98 139l2 -8q63 94 127 188q88 136 88 197q0 10 -4 21q-213 -201 -213 -391v-7zM451 784q114 265 114 478 q0 49 -6 90q-108 -199 -108 -493v-5v-70z" />
<glyph unicode="e" horiz-adv-x="587" d="M18 266q0 139 86 256q96 127 232 127h33q98 -57 98 -147q0 -66 -45 -150q-41 -70 -80 -139q-61 -25 -123 -96l14 -17q16 -4 33 -4q70 0 180 78q102 72 148 139q20 31 39 60q29 37 57 37q35 -1 35 -60q0 -125 -172 -261t-299 -136q-104 0 -184 84q-51 119 -52 229z M129 303q0 -31 12 -57h41q74 41 131 116q62 84 62 160q0 16 -4 31h-13h-8q-82 0 -150 -78q-72 -82 -71 -172z" />
<glyph unicode="f" horiz-adv-x="720" d="M-8 264q0 33 20 72q6 10 74 92q137 164 186 260q23 47 31 184q8 170 12 197q14 82 60.5 175t101.5 151h43q53 -51 53 -191q0 -123 -59 -268q-55 -127 -113 -252q-12 -31 -20 -80q-10 -78 -10 -80q-2 -8 -29 -104q-18 -63 -18 -107q0 -80 49 -137q29 -14 62.5 -29.5 t58.5 -15.5q74 0 141 70q25 25 98 129q48 69 77 69h1q33 0 33 -43q0 -80 -43 -149.5t-127 -134.5q-94 -72 -162 -72q-78 0 -166 63q-14 -113 -24 -413q0 -59 -15 -174q-8 -25 -28 -74q-35 -104 -72 -207q-43 -115 -107 -192h-43l-37 41v16v9q0 200 88 578q89 386 89 584 q0 61 -19 107l-74 -86q-41 -23 -75 -23q-37 0 -37 35zM172 -616q18 63 39 127q20 76 20 131q0 41 -12 75q-4 -27 -33 -143q-22 -84 -22 -140q0 -30 8 -50zM414 952q69 154 69 224v8l-2 18q-49 -78 -67 -250z" />
<glyph unicode="g" horiz-adv-x="745" d="M-25 154q0 178 148 376q158 211 330 211q25 0 47 -6q41 -43 41 -104q0 -27 -11.5 -82t-11.5 -82q0 -29 42 -155t61 -160q53 72 106 143q88 113 113 113q26 -1 26 -54q0 -80 -53 -141l-184 -209v-344q-6 -203 -62 -336q-18 -45 -37 -92q-25 -53 -55 -82l-12 -2h-4 q-71 0 -107 70q-30 55 -30 134v5q0 145 67 354q102 311 111 346q2 12 2 27q0 135 -80 250q-74 -88 -150 -176q-106 -111 -188 -111q-61 0 -107 66q-2 25 -2 41zM113 274q0 -8 8 -73q59 0 104 49q154 168 154 268q0 23 -8 86q-178 -74 -240 -260q-18 -53 -18 -70zM406 -598 q6 -29 30 -80q92 194 92 346q0 51 -8 109q-23 -2 -37 -27q-14 -61 -34 -182q-2 -31 -13 -90q-6 -31 -30 -76z" />
<glyph unicode="h" horiz-adv-x="790" d="M-41 -2q0 117 74 418l102 536q63 297 201 512q74 115 172 115q23 0 47 -6q39 -94 39 -215q0 -242 -107 -502q-14 -35 -55 -84q-47 -55 -58.5 -74.5t-60.5 -124.5q-35 -72 -73 -112q-119 -129 -119 -209q0 -12 8 -19q98 113 197 224q119 131 221 196q55 -25 71 -104 q-45 -242 -45 -316q0 -41 5 -75l22 -23q76 31 168 156q86 117 104 117q31 0 31 -80q0 -72 -24 -109q-55 -82 -134 -143q-92 -76 -174 -76q-55 0 -100 41q-6 125 -25 379q-127 -104 -284 -348q-29 -55 -82 -129q-33 -25 -103 -29q-18 23 -18 84zM184 682q0 -41 17 -90 q325 418 325 760v12l-2 63l-24 41q-109 -90 -172 -223q-49 -100 -84 -258q-29 -139 -58 -276q-2 -14 -2 -29z" />
<glyph unicode="i" horiz-adv-x="419" d="M20 324q0 51 19.5 146t21.5 142l27 29q51 -4 78 -68q-29 -197 -29 -206q0 -143 72 -222q78 6 179 135.5t120 129.5q35 -1 35 -58q0 -84 -113 -219t-192 -135q-59 0 -127 70q-63 63 -78 127q-12 49 -13 129zM289 1092v18q53 27 94 27q41 -39 41 -107l-29 -29h-4 q-12 0 -88 27q-14 29 -14 64z" />
<glyph unicode="j" horiz-adv-x="296" d="M-205 -604q0 190 55 360q29 88 62 142q25 33 48.5 63.5t23.5 81.5q0 131 32 299q39 195 97 281q23 -20 53 -25q12 -35 12 -68q0 -41 -36 -159.5t-36 -196.5v-92q53 61 103 129q41 57 82 115q63 80 102 80q43 0 43 -84q0 -35 -147 -195q-160 -174 -183 -225 q-18 -43 -18 -172q0 -96 -10 -159t-53 -237q-45 -193 -59.5 -213t-35.5 -39q-23 0 -41 -14q-94 88 -94 328zM-109 -532q0 -53 25 -103q49 246 49 383q-25 -70 -47 -139q-27 -80 -27 -141zM231 1094v69q45 29 76 29l19 -2q39 -39 39 -94q-18 -6 -46 -6q-14 0 -43.5 2t-44.5 2 z" />
<glyph unicode="k" horiz-adv-x="903" d="M-20 -37v18q0 133 28 302q6 27 66 315q12 63 53 412q29 254 90 401q23 57 86 115h3q74 0 110 -99q26 -69 26 -157v-6q0 -141 -55 -301q-35 -98 -123 -285q-4 -10 -4 -19q0 -16 8 -32q76 102 150 207q111 135 194 135q70 0 115 -101v-12q2 -160 -131 -344 q-37 -51 -248 -287q98 -106 195 -106q111 0 217 76q66 47 145 141q66 76 80 76q25 -1 25 -56q0 -117 -52 -168q-202 -202 -401 -202h-2q-96 0 -168 43q-12 6 -100 75q-51 43 -103 43l-12 -2q-18 -25 -66 -149q-39 -102 -83 -123l-43 14v76zM242 922q88 145 88 305 q0 55 -13 102q-55 -205 -75 -407zM252 319q88 47 217 207q135 172 135 258q0 39 -20 64q-98 -86 -200.5 -248t-131.5 -281z" />
<glyph unicode="l" horiz-adv-x="614" d="M31 385q0 135 30 297q39 209 76 418q66 270 189 354q53 35 71 35q35 0 76 -51q8 -49 8 -101q0 -266 -221 -735q-33 -66 -65 -133q-39 -86 -39 -135q0 -244 155 -244q94 0 181 84q45 43 124 156q59 84 84 84q37 -1 37 -62q0 -131 -133 -249.5t-266 -118.5q-182 0 -254 116 q-53 88 -53 285zM209 805q0 -29 4 -80q195 397 195 524q0 68 -15 105q-72 -45 -108 -150q-23 -94 -45 -188q-31 -123 -31 -211z" />
<glyph unicode="m" horiz-adv-x="1474" d="M8 281q0 41 13.5 74.5t126 168.5t142 155.5t58.5 20.5l21 -2q53 -49 65 -153q18 -133 31 -166q72 90 219 270q8 2 18 2q49 0 99 -67q37 -51 73 -105h11q39 49 194 318l11 2q39 0 71 -17q25 -49 25 -51v-520q0 -37 47 -80q76 2 147 76q37 35 107 135q51 72 72 72 q34 0 34 -78q0 -90 -63 -146q-70 -63 -139 -127q-89 -69 -164 -69h-2q-160 0 -160 356q0 96 -12 154h-3q-47 0 -128 -199q-96 -240 -111 -256q-35 -39 -90 -41l-37 41v14v6q0 56 32 157q34 106 34 161q0 51 -29 88h-16q-86 -100 -197 -254q-94 -131 -189 -262q-43 4 -94 53 q0 8 60 207q37 125 37 211q0 33 -7 59q-90 -55 -178 -178q-14 -27 -45 -71q-23 -23 -49 -23q-35 0 -35 64z" />
<glyph unicode="n" horiz-adv-x="1011" d="M-10 250q0 53 54 148.5t101 95.5t84 -119q20 -82 41 -164q94 39 160 151q72 123 133 158q70 -18 92 -94q10 -72 23 -145q18 -84 74 -115q16 -2 30 -2q68 0 138 63q29 27 102 119q51 63 76 64q24 -1 24 -52q0 -88 -37 -147q-31 -49 -155.5 -117.5t-181.5 -68.5 q-63 0 -103 57q-25 37 -55.5 125t-50.5 117q-66 -94 -158 -193q-123 -131 -188 -141q-61 31 -62 180q0 49 8 84l-18 20q-41 -86 -92 -86q-39 0 -39 62z" />
<glyph unicode="o" horiz-adv-x="468" d="M12 166q0 383 299 680l8 2q29 0 62 -17q6 -20 12 -61q31 -10 62 -18q37 -15 37 -99q0 -43 -63.5 -228t-88.5 -228q-27 -29 -64 -97q-31 -43 -81 -100q-45 -10 -117 -29q-66 57 -66 195zM143 205q0 -35 9 -62q219 222 227 531q-57 -29 -80 -64q-12 -27 -39 -80 q-37 -72 -96 -168q-2 -29 -8 -86q-12 -47 -13 -71z" />
<glyph unicode="p" horiz-adv-x="673" d="M-227 -446q0 117 96 325q137 299 145 322q14 39 25 178q8 113 16 225q12 135 41 219q17 47 31 47q3 0 6 -2l39 27q45 -14 64 -41q-16 -106 -48 -317l113 86q80 61 117 61q55 0 92 -80q33 -66 33 -125q0 -139 -90 -260l-2 -12q0 -8 8 -14q80 14 147 69q39 31 92 94 q39 47 54 47h1q35 0 35 -75q0 -59 -32 -103q-151 -200 -460 -200h-3q-59 0 -178 8q-74 -180 -226 -539q-27 -12 -47 -31q-70 16 -69 91zM156 209l26 -29q23 -10 51 -10h17q72 59 125 149q61 101 61 183q0 33 -12 59h-43q-145 -98 -225 -352z" />
<glyph unicode="q" horiz-adv-x="808" d="M-35 100q0 14 3 41t3 41q0 20 -4 41q63 168 187 312q152 178 301 178q23 0 57 -23q12 8 84 86h12q39 0 68 -12q14 -41 14 -82q0 -96 -114.5 -257t-114.5 -255q0 -25 6 -49l22 -23q121 16 213 99q47 39 121 139q53 72 84 72q39 -1 39 -54q0 -86 -104 -211 q-90 -109 -170 -143q-45 -18 -217 -47v-27v-8q0 -85 41 -238q43 -161 43 -243q0 -115 -33 -242q-45 -166 -119 -194q-20 16 -63 16q-92 106 -93 240q0 35 19 170q29 188 72 565q-53 41 -129 53q-41 -33 -109 -33q-45 0 -82 23.5t-37 64.5zM129 193q0 -27 25 -27 q70 0 174 131q45 55 78 207h-9q-57 0 -162.5 -126t-105.5 -185zM336 -782q0 -35 26 -82q12 12 31 14q51 131 51 309q0 135 -30 232q-78 -238 -78 -473z" />
<glyph unicode="r" horiz-adv-x="542" d="M-31 242q0 31 109 202q100 160 139 205q49 -4 112.5 -118.5t63.5 -170.5q0 -25 -16.5 -71.5t-16.5 -71.5q0 -29 21 -47l8 -2q47 0 122 121t114 121q34 -1 34 -54q0 -74 -45 -157q-31 -55 -139 -129q-100 -68 -170 -90q-100 29 -100 116q0 47 26.5 134t26.5 135 q0 43 -16 77h-2q-36 0 -67 -59q-32 -61 -62 -121q-41 -63 -99 -63q-43 0 -43 43z" />
<glyph unicode="s" horiz-adv-x="862" d="M-29 248q0 72 179.5 266.5t250.5 194.5q10 0 17 -4q92 0 92 -142q0 -51 -14.5 -154.5t-14.5 -156.5q0 -35 6 -62q45 -10 86 -10q197 0 328 182q27 39 55 39q33 0 33 -45q0 -164 -239 -264q-190 -82 -383 -82q-305 0 -306 146q0 37 23 73q-37 -16 -70 -16q-43 0 -43 35z M115 252q10 -4 88 -57q55 -37 92 -37q18 0 35 12q6 27 37 109q26 69 26 112q0 45 -12 127q-59 -47 -137 -129q-63 -70 -129 -137z" />
<glyph unicode="t" horiz-adv-x="483" d="M-139 813h10h9q56 0 192 -22q4 27 4 102q0 88 43 205q49 141 117 149l28 -14q41 -72 41 -164q0 -63 -20 -160q-29 -139 -31 -159q29 -25 82 -25q16 0 49 2t51 2h25l26 -31q-31 -69 -168 -69h-4q-53 0 -102 14q-37 -70 -37 -332q0 -104 39 -200q12 0 23 -11q88 20 161 101 q41 43 99 137q41 70 59 70q47 -1 47 -91q0 -106 -157.5 -233t-268.5 -127q-35 0 -57 8q-86 29 -86 301q0 117 16 256q14 127 15 131v4q-68 33 -195 113zM176 842h19l24 133h-18z" />
<glyph unicode="u" horiz-adv-x="905" d="M29 307q0 211 63 289q37 -4 70 -41v-8q0 -29 -10.5 -84t-10.5 -82q0 -39 10.5 -111.5t10.5 -109.5l20 -21q98 27 172 137q53 82 103 230q33 109 67 219l39 18q53 -23 53 -112q0 -55 -13 -164t-13 -164q0 -119 49 -201q106 14 180 93q29 29 96 135q42 67 79 67h1 q27 0 27 -43q0 -131 -141 -252q-129 -111 -269 -133q-82 27 -104 137q-16 90 -31 183q-47 -94 -125 -174q-96 -98 -178 -99q-82 0 -119 109q-26 73 -26 174v8z" />
<glyph unicode="v" horiz-adv-x="831" d="M-25 240q0 16 27 78.5t39 76.5q57 84 115 168q80 113 137 127q55 -63 55 -297q0 -37 -13 -111.5t-13 -113.5l18 -21q96 94 137 236q29 135 55 268q10 4 19 4q41 0 63 -59q18 -47 19 -94q66 -178 158 -178q31 0 71.5 25.5t55.5 25.5q45 -1 45 -56q0 -57 -76 -96 q-59 -30 -121 -30h-4q-68 0 -114 43t-48 110q-63 -121 -127 -242q-88 -141 -203 -141h-6q-55 45 -55 203q0 49 7 148.5t7 146.5q-14 0 -30 -60q-35 -117 -121 -190q-23 -6 -45 -6q-51 0 -52 35z" />
<glyph unicode="w" horiz-adv-x="1017" d="M6 600q0 86 64 86q39 0 51 -24l-4 -9q26 -57 26 -146v-7q0 -43 -7 -131t-7 -133q0 -102 25 -177q61 20 97 125t105 119q-23 41 -22 72q0 63 5 188t5 185l29 28q41 -2 88 -45q8 -84 12 -293q4 -188 19 -295q14 -10 43 -32q184 166 184 424q0 74 -19 139q26 24 72 24h4 q12 0 21 -2q18 -115 39 -229q37 -170 104 -170q78 0 123 51t47 51q37 0 37 -45t-29 -108q-84 -66 -157 -66q-131 0 -183 90q-25 -29 -69 -116q-45 -94 -76 -131q-49 -61 -107 -62q-33 0 -67 19q-31 49 -103 143q-86 -131 -188 -232q-16 -2 -35 -2q-16 0 -33 2 q-84 80 -84 340q0 33 2 101.5t2 101.5q0 29 -7 84t-7 82z" />
<glyph unicode="x" horiz-adv-x="512" d="M-88 -229q0 55 57 168q66 125 74 174q12 63 12 155q0 63 -18.5 191.5t-18.5 191.5q0 100 43 101q33 0 70 -43q2 -6 29 -140q20 -106 39 -106q43 74 86 149q63 94 127 95q35 0 67 -25q-2 -25 -32.5 -68t-53.5 -51q-117 -221 -172 -364l21 -21q18 -47 67 -47q72 0 167 132 t128 132q31 0 31 -49q0 -115 -119 -232.5t-233 -117.5q-70 0 -127 47q-61 -102 -185 -307l-43 -12q-16 18 -16 47z" />
<glyph unicode="y" horiz-adv-x="770" d="M31 387q8 90 51 207q41 98 82 199h55q16 -29 17 -66q0 -47 -30 -137t-30 -139q0 -35 19 -127q78 31 145 102q41 43 110.5 143.5t108.5 143.5l80 -8q-8 -127 -8 -256q0 -152 10 -302q53 57 141 183q12 23 26.5 48t39.5 25h1q44 0 44 -77q0 -74 -98 -181q-31 -33 -158 -145 q2 -49 2 -92q0 -453 -193 -658q-69 -75 -117 -75h-1q-16 0 -29 6q-86 45 -139 141q-49 90 -49 191q0 137 77 270q74 127 193 205q45 20 129 67q37 27 37 62v-1q-2 0 -15 93q-12 90 -14 205l-18 22q-78 -82 -158 -164q-112 -108 -183 -108h-1q-57 0 -88 88q-18 68 -39 135z M195 -522q0 -147 147 -176q188 204 188 493v68q-2 45 -2 65q-53 -2 -139 -65q-63 -49 -125 -101q-23 -70 -45 -139q-25 -82 -24 -145z" />
<glyph unicode="z" horiz-adv-x="790" d="M27 279q0 84 53 153q35 47 121 117q51 -23 51 -62q0 -10 -4 -24q-6 2 -6 -27q0 -16 10 -30q69 77 129 77h2q82 0 145 -145q41 -109 82 -217q106 78 181 184q18 27 34 55q25 31 52 31q41 0 41 -63q0 -59 -72 -131q-113 -117 -131 -142q-70 -98 -70 -219q0 -33 5 -100.5 t5 -100.5q0 -139 -73 -297q-87 -188 -206 -188h-3h-13q-43 33 -63 76v41v11q0 296 215 642v29v13q0 203 -117 382h-10q-39 0 -84 -59q-61 -78 -72 -84q-25 -20 -102 -43q-100 43 -100 121zM410 -705q122 150 122 349q0 51 -10 94q-116 -287 -116 -398q0 -25 4 -45z" />
<glyph unicode="{" horiz-adv-x="870" d="M59 545q0 100 129 100q51 0 97 -18q33 8 63.5 18t50 48t19.5 89q0 88 -101 277q-117 217 -135 287q25 123 140 206q109 80 237 80q121 0 189 -76q-4 -25 -31 -24q-20 0 -58 13.5t-59 13.5q-68 0 -160 -74t-116 -142q8 -43 20 -131q203 -260 203 -426q0 -119 -80 -245v-9 q0 -16 19.5 -56t21.5 -54q8 -39 8 -115q0 -6 -8 -184q-66 -117 -74 -199q-63 -82 -63 -125q0 -45 51 -90q61 14 108 15q135 0 132 -105l-3 -16q-102 -51 -194 -52q-96 0 -165 61.5t-69 158.5q0 59 48 155q63 129 69 150q33 98 33 207q0 133 -62 188q-39 8 -90 8 q-23 0 -66.5 -2t-64.5 -2q-39 29 -39 70z" />
<glyph unicode="|" horiz-adv-x="694" d="M221 1567q0 16 2 32l21 15h43q78 -160 84 -350q10 -271 10 -746v-463q0 -180 -2 -370q-20 -47 -53 -47q-6 0 -76 6q0 18 -12.5 52t-12.5 50q0 84 6 231q8 162 9 232q0 301 8 907q2 96 2 123q0 53 -14.5 162.5t-14.5 165.5z" />
<glyph unicode="}" horiz-adv-x="1105" d="M211 1446q-4 76 96 135q88 53 170 53q145 0 244 -125q90 -117 90 -266q0 -16 -33 -153q0 -20 -8 -58.5t-59 -157.5q-39 -92 -39 -159q0 -96 76 -172q29 2 88 25.5t92 23.5q80 0 80 -68q0 -51 -82 -92q-141 -70 -152 -78q-82 -59 -82 -157q0 -80 77 -228.5t77 -220.5 q0 -96 -127 -180q-102 -59 -205 -119q-70 -14 -113 -14q-63 0 -106 26q18 63 106 101q84 31 170 63q98 51 140 148q-20 80 -72 192q-78 180 -82 189q2 10 2 22t-2 33.5t-2 34.5q0 37 35 116.5t35 94.5q0 47 -68 129q-8 51 -8 102q0 104 71.5 289.5t71.5 284.5q0 104 -51 174 q-55 78 -156 77q-109 0 -245 -79q-12 12 -29 14z" />
<glyph unicode="~" horiz-adv-x="1658" d="M166 588q0 47 47 135q57 106 66 135q78 12 137 12q127 0 313 -69q47 -6 135 -31q16 -6 82 -51q47 -33 90 -33t82 16q10 8 96 103q57 61 105 92q37 -14 104 -51v-10q2 -35 -17.5 -56.5t-55.5 -60.5q-96 -98 -136 -129q-92 -72 -165 -72q-51 0 -138 53q-109 66 -137 76 q-219 76 -317 76q-18 0 -37 -2q-47 -29 -101 -107q-43 -61 -83 -125q-70 37 -70 99z" />
<glyph unicode="&#xa0;" />
<glyph unicode="&#xa1;" />
<glyph unicode="&#xa2;" />
<glyph unicode="&#xa3;" />
<glyph unicode="&#xa4;" />
<glyph unicode="&#xa5;" />
<glyph unicode="&#xa6;" />
<glyph unicode="&#xa7;" />
<glyph unicode="&#xa8;" />
<glyph unicode="&#xa9;" />
<glyph unicode="&#xaa;" />
<glyph unicode="&#xab;" />
<glyph unicode="&#xac;" />
<glyph unicode="&#xad;" horiz-adv-x="1329" />
<glyph unicode="&#xae;" />
<glyph unicode="&#xaf;" />
<glyph unicode="&#xb0;" />
<glyph unicode="&#xb1;" />
<glyph unicode="&#xb2;" />
<glyph unicode="&#xb3;" />
<glyph unicode="&#xb4;" />
<glyph unicode="&#xb6;" />
<glyph unicode="&#xb7;" />
<glyph unicode="&#xb8;" />
<glyph unicode="&#xb9;" />
<glyph unicode="&#xba;" />
<glyph unicode="&#xbb;" />
<glyph unicode="&#xbc;" />
<glyph unicode="&#xbd;" />
<glyph unicode="&#xbe;" />
<glyph unicode="&#xbf;" />
<glyph unicode="&#xc0;" />
<glyph unicode="&#xc1;" />
<glyph unicode="&#xc2;" />
<glyph unicode="&#xc3;" />
<glyph unicode="&#xc4;" />
<glyph unicode="&#xc5;" />
<glyph unicode="&#xc6;" />
<glyph unicode="&#xc7;" />
<glyph unicode="&#xc8;" />
<glyph unicode="&#xc9;" />
<glyph unicode="&#xca;" />
<glyph unicode="&#xcb;" />
<glyph unicode="&#xcc;" />
<glyph unicode="&#xcd;" />
<glyph unicode="&#xce;" />
<glyph unicode="&#xcf;" />
<glyph unicode="&#xd0;" />
<glyph unicode="&#xd1;" />
<glyph unicode="&#xd2;" />
<glyph unicode="&#xd3;" />
<glyph unicode="&#xd4;" />
<glyph unicode="&#xd5;" />
<glyph unicode="&#xd6;" />
<glyph unicode="&#xd7;" />
<glyph unicode="&#xd8;" />
<glyph unicode="&#xd9;" />
<glyph unicode="&#xda;" />
<glyph unicode="&#xdb;" />
<glyph unicode="&#xdc;" />
<glyph unicode="&#xdd;" />
<glyph unicode="&#xde;" />
<glyph unicode="&#xdf;" />
<glyph unicode="&#xe0;" />
<glyph unicode="&#xe1;" />
<glyph unicode="&#xe2;" />
<glyph unicode="&#xe3;" />
<glyph unicode="&#xe4;" />
<glyph unicode="&#xe5;" />
<glyph unicode="&#xe6;" />
<glyph unicode="&#xe7;" />
<glyph unicode="&#xe8;" />
<glyph unicode="&#xe9;" />
<glyph unicode="&#xea;" />
<glyph unicode="&#xeb;" />
<glyph unicode="&#xec;" />
<glyph unicode="&#xed;" />
<glyph unicode="&#xee;" />
<glyph unicode="&#xef;" />
<glyph unicode="&#xf0;" />
<glyph unicode="&#xf1;" />
<glyph unicode="&#xf2;" />
<glyph unicode="&#xf3;" />
<glyph unicode="&#xf4;" />
<glyph unicode="&#xf5;" />
<glyph unicode="&#xf6;" />
<glyph unicode="&#xf7;" />
<glyph unicode="&#xf8;" />
<glyph unicode="&#xf9;" />
<glyph unicode="&#xfa;" />
<glyph unicode="&#xfb;" />
<glyph unicode="&#xfc;" />
<glyph unicode="&#xfd;" />
<glyph unicode="&#xfe;" />
<glyph unicode="&#xff;" />
<glyph unicode="&#x152;" />
<glyph unicode="&#x153;" />
<glyph unicode="&#x178;" />
<glyph unicode="&#x2c6;" />
<glyph unicode="&#x2dc;" />
<glyph unicode="&#x2000;" horiz-adv-x="887" />
<glyph unicode="&#x2001;" horiz-adv-x="1774" />
<glyph unicode="&#x2002;" horiz-adv-x="887" />
<glyph unicode="&#x2003;" horiz-adv-x="1774" />
<glyph unicode="&#x2004;" horiz-adv-x="591" />
<glyph unicode="&#x2005;" horiz-adv-x="443" />
<glyph unicode="&#x2006;" horiz-adv-x="295" />
<glyph unicode="&#x2007;" horiz-adv-x="295" />
<glyph unicode="&#x2008;" horiz-adv-x="221" />
<glyph unicode="&#x2009;" horiz-adv-x="354" />
<glyph unicode="&#x200a;" horiz-adv-x="98" />
<glyph unicode="&#x2010;" horiz-adv-x="1329" />
<glyph unicode="&#x2011;" horiz-adv-x="1329" />
<glyph unicode="&#x2012;" horiz-adv-x="1329" />
<glyph unicode="&#x2013;" />
<glyph unicode="&#x2014;" />
<glyph unicode="&#x2018;" />
<glyph unicode="&#x2019;" />
<glyph unicode="&#x201a;" />
<glyph unicode="&#x201c;" />
<glyph unicode="&#x201d;" />
<glyph unicode="&#x201e;" />
<glyph unicode="&#x2022;" />
<glyph unicode="&#x2026;" />
<glyph unicode="&#x202f;" horiz-adv-x="354" />
<glyph unicode="&#x2039;" />
<glyph unicode="&#x203a;" />
<glyph unicode="&#x205f;" horiz-adv-x="443" />
<glyph unicode="&#x2122;" />
<glyph unicode="&#x25fc;" horiz-adv-x="747" d="M0 0v748h748v-748h-748z" />
</font>
</defs>
</svg>
